<?xml version="1.0" encoding="utf-8"?>
<!DOCTYPE svg PUBLIC "-//W3C//DTD SVG 1.0//EN" "http://www.w3.org/TR/2001/REC-SVG-20010904/DTD/svg10.dtd">
<svg version="1.0" xmlns="http://www.w3.org/2000/svg" width="512px" height="512px" viewBox="0 0 512 512" preserveAspectRatio="xMidYMid meet">
 <g fill="#8c818f">
  <path d="M304.6 181.4 c-2.5 -2.5 -3.1 -4.5 -2.6 -8.7 0.1 -1 5.7 -10.7 12.5 -21.5 l12.4 -19.7 -11.2 -0.5 c-6.2 -0.3 -11.9 -0.9 -12.9 -1.4 -0.9 -0.4 -2.2 -2.1 -2.8 -3.7 -1 -2.4 -1 -3.3 0.4 -5.4 2.7 -4.1 5.8 -4.7 22.9 -4.3 l15.9 0.3 3 3.4 c4.7 5.2 3.8 7.8 -10.1 29.8 -6.6 10.6 -12.1 19.5 -12.1 19.8 0 0.3 4.9 0.5 10.9 0.5 9.4 0 11.2 0.3 13.5 2.1 3.2 2.5 3.5 7 0.6 9.9 -1.9 1.9 -3.3 2 -19.9 2 l-17.8 0 -2.7 -2.6z"/>
  <path d="M397.3 118.5 c-1.7 -0.7 -3.6 -2.2 -4.2 -3.4 -2.7 -4.9 -1.4 -8 11.4 -28.6 l12.6 -20 -10.3 -0.2 c-13.1 -0.4 -14.4 -0.7 -16.3 -4.3 -1.8 -3.4 -0.7 -7.3 2.4 -8.9 1.2 -0.7 8.9 -1.1 19.1 -1.1 l17.2 0 2.9 2.9 c5.1 5.2 4.4 7.3 -9.6 29.6 l-12.6 20 11.4 0.5 c9.4 0.4 11.9 0.8 13.6 2.4 3.1 2.8 2.8 7.9 -0.5 10.5 -2.5 1.9 -4 2.1 -18.3 2.1 -11 -0.1 -16.5 -0.5 -18.8 -1.5z"/>
  <path d="M262.7 66.9 c-2.7 -1.6 -4.9 -6.7 -4.2 -9.7 0.3 -1.5 6.1 -11.5 12.9 -22.2 l12.3 -19.5 -11.9 -0.5 c-11.1 -0.5 -12.1 -0.7 -13.9 -2.9 -3.4 -4.2 -1.9 -9 3.5 -11.1 3.5 -1.3 28 -1.3 32.7 0 4.5 1.3 6.8 3.8 7.5 8.1 0.5 3 -0.8 5.6 -11.6 22.9 -6.7 10.7 -12.5 20 -12.7 20.7 -0.4 1 2.1 1.3 10.6 1.3 10.5 0 11.3 0.1 13.6 2.5 3 2.9 3.2 6.8 0.5 9.5 -1.9 1.9 -3.3 2 -19.7 2 -10.2 0 -18.5 -0.5 -19.6 -1.1z"/>
 </g>
 <g fill="#e9a52d">
  <path d="M244 411.6 c0 -0.9 -2.7 -1.7 -9.2 -2.5 -67.2 -8.6 -126.7 -51 -157.2 -111.9 -13.8 -27.7 -20.1 -53.2 -21.3 -86.4 -0.6 -17.8 -0.6 -17.8 1.5 -17.8 1.6 0 2.2 0.6 2.2 2.1 0 4 4.1 22.2 7.2 31.8 17.2 54 55.7 98.6 106.3 123.1 20 9.7 39.2 15.6 61.7 18.9 l11.3 1.6 0.3 21.3 c0.2 18.4 0 21.2 -1.3 21.2 -0.8 0 -1.5 -0.6 -1.5 -1.4z"/>
  <path d="M400.7 336.3 c-0.4 -13.3 -1 -19.7 -2.5 -25.4 -2.2 -8.1 -7.3 -19.1 -11.6 -24.8 -2.6 -3.4 -3.9 -10.8 -1.5 -8.4 1.3 1.3 6.9 -0.4 19.9 -6.1 l8.3 -3.7 2.4 2.8 c1.3 1.5 3.7 5 5.3 7.7 l2.9 4.9 4 -6.4 c2.3 -3.5 6.5 -11 9.4 -16.7 5.1 -10.1 5.2 -10.2 8.2 -9.6 4.5 1 6.4 2.2 8.5 5.7 2.7 4.3 2.5 6.4 -1.1 17.1 -6.2 18 -18.4 41.1 -29.9 56.3 -5.6 7.5 -20.1 24.1 -21.1 24.2 -0.4 0.1 -0.9 -7.9 -1.2 -17.6z"/>
 </g>
 <g fill="#eec06b">
  <path d="M243.7 375.1 c-0.3 -1.5 -2.1 -2 -9.8 -3 -86.4 -11.1 -157.1 -76.6 -175 -162.2 -2.6 -12.8 -2.6 -20.3 0.1 -36.7 8.9 -52.4 37.6 -99 80.6 -130.8 17.8 -13.2 24.2 -15.2 30.2 -9.6 5.6 5.2 5.5 6.9 -1.2 25.8 -23.5 67.3 -1.2 144.2 55.2 190.3 3.5 2.8 6.6 5.1 7 5.1 0.4 -0.1 -1.3 -1.8 -3.8 -3.8 -2.4 -2 -5.8 -5 -7.5 -6.5 l-3 -2.8 3 0.3 c2 0.2 3.3 1.1 4 2.6 0.5 1.2 1.8 2.2 2.8 2.2 1.1 0 2.1 0.9 2.4 2 0.3 1.1 1.3 2 2.3 2 4.8 0 13.5 15.9 15 27.2 0.5 4 1 28.1 1 53.6 0 38.7 -0.2 46.2 -1.4 46.2 -0.7 0 -1.6 -0.8 -1.9 -1.9z"/>
  <path d="M422.3 288.9 c-0.6 -0.8 -1.8 -3 -2.8 -4.9 -1 -1.9 -3.5 -5.9 -5.8 -8.8 -2.2 -2.9 -3.8 -5.4 -3.6 -5.5 0.2 -0.2 3.8 -2.3 7.9 -4.7 4.1 -2.3 10.3 -6.3 13.8 -8.7 7.2 -5.1 11.9 -7 13.4 -5.5 1.5 1.5 -12.5 28 -19.5 36.6 -1.8 2.3 -2.5 2.6 -3.4 1.5z"/>
 </g>
 <g fill="#bed9fb">
  <path d="M276 509.1 c0 -2.4 0.4 -3.1 1.9 -3.1 1 0 5.5 -1.8 9.9 -4 16.7 -8.4 26.8 -23.7 28.8 -43.9 1.1 -12 4.6 -15.4 17.3 -16.5 4 -0.3 7.7 -0.9 8.2 -1.2 0.5 -0.3 0.9 -16.9 0.9 -36.9 l0 -36.4 2.6 -2 c3.5 -2.8 11.2 -2.9 14.5 -0.2 l2.4 1.9 0.5 30.9 0.5 30.8 3.3 -5 c6.3 -9.5 6.3 -10.3 6 -62.7 l-0.3 -47.3 -2.8 -8 c-4.2 -11.9 -9.9 -21 -19.1 -30 -9.3 -9.1 -17.5 -14.3 -28.1 -17.7 -5.5 -1.7 -7.5 -2.8 -7.5 -4 0 -1.6 1.2 -1.8 11.1 -1.8 13.1 0 22.5 1.9 32.7 6.6 21.1 9.6 36.3 27.3 42.4 49.1 2.2 7.6 2.2 9.1 2 55.8 -0.3 52.6 -0.5 54.5 -6.4 63.7 -8.5 13.4 -21.1 18.7 -45 18.8 l-5.8 0 0 10.8 c0 16.2 -3.6 26.7 -12.6 37 -10.7 12.2 -22.5 17 -43.6 17.9 l-13.8 0.6 0 -3.2z"/>
  <path d="M294.9 325.1 l-2.4 -1.9 -0.3 -37.1 c-0.3 -36.7 -0.3 -37.1 1.8 -37.1 1.1 0 2 0.7 2 1.5 0 1.2 1.6 1.5 8.5 1.5 l8.5 0 0 34.9 c0 33.7 -0.1 34.9 -2.1 37.5 -1.8 2.3 -2.8 2.6 -7.9 2.6 -4.2 0 -6.4 -0.5 -8.1 -1.9z"/>
 </g>
 <g fill="#ddebfd">
  <path d="M255.5 511.1 c-3.9 -1 -6.6 -2.7 -9 -5.9 -2 -2.7 -2 -4.7 -2.5 -115.2 l-0.5 -112.5 -2.2 -5.8 c-3.2 -8.4 -10.5 -18.9 -16.5 -23.5 -2.9 -2.3 -7.5 -6.3 -10.1 -9 l-4.8 -4.9 23.3 -8.8 c21.1 -8 24 -8.8 30.3 -8.9 12.7 0 24.6 7.6 29.7 19.2 2 4.5 2.1 6.5 2.2 44.5 l0.1 39.9 2.4 1.9 c3.4 2.7 7.5 2.4 10 -0.7 2 -2.6 2.1 -3.8 2.1 -36 l0 -33.4 3.8 0 c4.9 0 18.8 4.9 25.9 9.1 8.1 4.8 21.2 18.1 26.1 26.4 2.2 3.9 5.3 10.6 6.9 15 l2.8 8 0 52.5 0 52.5 -2.7 5.7 c-2.5 5.4 -10.1 14.8 -11.9 14.8 -0.5 0 -0.9 -14.6 -0.9 -32.5 l0 -32.6 -2.5 -2.4 c-3 -3 -5.4 -3.1 -8.9 -0.4 l-2.6 2 0 36.4 c0 20 -0.4 36.6 -0.9 36.9 -0.5 0.3 -4.2 0.9 -8.2 1.2 -12.7 1.1 -16.2 4.5 -17.3 16.5 -2 20.2 -12.1 35.5 -28.8 43.9 -4.4 2.2 -8.9 4 -9.9 4 -1.1 0 -1.9 0.7 -1.9 1.5 0 1.2 -1.8 1.5 -10.2 1.4 -5.7 -0.1 -11.6 -0.4 -13.3 -0.8z"/>
 </g>
</svg>